<svg xmlns="http://www.w3.org/2000/svg" xmlns:xlink="http://www.w3.org/1999/xlink" viewBox="0,0,256,256" width="24px" height="24px" fill-rule="nonzero"><g fill="#ffffff" fill-rule="nonzero" stroke="none" stroke-width="1" stroke-linecap="butt" stroke-linejoin="miter" stroke-miterlimit="10" stroke-dasharray="" stroke-dashoffset="0" font-family="none" font-weight="none" font-size="none" text-anchor="none" style="mix-blend-mode: normal"><g transform="scale(10.66667,10.66667)"><path d="M7,4c-2.74952,0 -5,2.25048 -5,5v9c0,1.09306 0.90694,2 2,2h16c1.09306,0 2,-0.90694 2,-2v-9c0,-2.74952 -2.25048,-5 -5,-5zM7,6c1.66848,0 3,1.33152 3,3v9h-6v-9c0,-1.66848 1.33152,-3 3,-3zM10.9707,6h6.0293c1.66848,0 3,1.33152 3,3v9h-8v-7h4v2h2v-4h-6c0,-1.12794 -0.39275,-2.16094 -1.0293,-3zM6,9v2h2v-2z"></path></g></g></svg>