<svg xmlns="http://www.w3.org/2000/svg" xmlns:xlink="http://www.w3.org/1999/xlink" viewBox="0,0,256,256" width="24px" height="24px" fill-rule="nonzero"><g fill="#ffffff" fill-rule="nonzero" stroke="none" stroke-width="1" stroke-linecap="butt" stroke-linejoin="miter" stroke-miterlimit="10" stroke-dasharray="" stroke-dashoffset="0" font-family="none" font-weight="none" font-size="none" text-anchor="none" style="mix-blend-mode: normal"><g transform="scale(10.66667,10.66667)"><path d="M12,2c-4.40644,0 -8,3.59356 -8,8v1v0.90234c-0.57371,0.54707 -1,1.2508 -1,2.09766c0,1.24197 0.85755,2.1629 1.94336,2.61328c1.30103,3.10981 3.90688,5.38672 7.05664,5.38672c3.14976,0 5.75561,-2.27691 7.05664,-5.38672c1.08581,-0.45038 1.94336,-1.37131 1.94336,-2.61328c0,-0.84685 -0.42629,-1.55059 -1,-2.09766v-0.90234v-1c0,-4.40644 -3.59356,-8 -8,-8zM12,4c2.65559,0 4.89062,1.70738 5.68555,4.08789c-0.22135,-0.05285 -0.44904,-0.08789 -0.68555,-0.08789h-10c-0.2365,0 -0.46419,0.03504 -0.68555,0.08789c0.79492,-2.38051 3.02996,-4.08789 5.68555,-4.08789zM7,10h10c0.56503,0 1,0.43497 1,1v1v0.85156l0.50195,0.28711c0.30364,0.1743 0.49805,0.47634 0.49805,0.86133c0,0.51512 -0.36883,0.91271 -0.86133,0.98047l-0.58594,0.08203l-0.21289,0.55078c-1.0308,2.68622 -3.0814,4.38672 -5.33984,4.38672c-2.25845,0 -4.30904,-1.7005 -5.33984,-4.38672l-0.21289,-0.55078l-0.58594,-0.08203c-0.4925,-0.06776 -0.86133,-0.46535 -0.86133,-0.98047c0,-0.38499 0.19441,-0.68703 0.49805,-0.86133l0.50195,-0.28711v-0.85156v-1c0,-0.56503 0.43497,-1 1,-1z"></path></g></g></svg>