<svg fill="#000000" xmlns="http://www.w3.org/2000/svg"  viewBox="0 0 512 512" width="50px" height="50px"><path d="M104 3928 c3 -40 11 -152 17 -248 6 -96 12 -175 13 -176 0 0 337 -28 748 -61 412 -33 750 -62 752 -64 3 -3 1 -23 -4 -44 -5 -22 -11 -52 -14 -66 l-6 -26 -692 -7 c-381 -4 -694 -9 -696 -11 -4 -3 288 -465 308 -488 3 -4 242 51 531 123 288 71 529 130 536 130 6 0 17 -26 23 -57 6 -32 17 -76 24 -99 l14 -41 -447 -138 c-245 -76 -449 -141 -453 -144 -8 -7 414 -311 431 -311 6 0 140 81 296 180 157 100 291 183 298 185 6 2 45 -26 85 -63 l73 -67 -200 -175 c-110 -96 -199 -179 -197 -184 2 -8 327 -138 332 -133 1 1 53 89 116 194 108 183 115 192 134 178 10 -8 26 -14 34 -14 8 0 41 35 72 79 l58 79 -78 40 c-197 103 -301 240 -401 524 -52 150 -41 256 49 445 46 96 135 240 210 340 17 23 29 42 26 42 -32 0 -170 -92 -242 -162 l-42 -40 -846 176 c-466 97 -852 176 -858 176 -7 0 -8 -24 -4 -72z" transform="matrix(.1 0 0 -.1 0 512)"/><path d="M4125 3824 c-456 -96 -835 -171 -841 -167 -6 5 -48 38 -93 74 -83 67 -178 125 -188 116 -3 -3 15 -32 40 -64 173 -225 288 -493 273 -634 -6 -67 -84 -273 -140 -372 -66 -120 -177 -222 -314 -291 -35 -18 -50 -31 -45 -39 4 -7 29 -43 56 -80 39 -53 54 -67 68 -63 11 3 27 8 37 11 13 5 40 -32 130 -184 l112 -191 48 19 c26 10 99 38 162 61 63 24 118 46 123 50 4 4 -85 88 -197 187 l-205 181 32 25 c18 14 51 43 74 66 23 23 45 41 48 41 3 0 134 -82 292 -181 157 -100 294 -184 302 -186 20 -5 446 296 434 307 -4 5 -206 70 -448 145 -242 75 -441 137 -442 138 -1 2 7 36 18 77 10 40 19 86 19 100 l0 27 538 -133 c413 -102 540 -130 549 -121 6 7 79 118 162 247 l151 235 -278 6 c-152 4 -467 7 -699 8 -399 1 -423 2 -423 19 0 10 -6 41 -13 69 l-14 52 41 5 c23 3 241 22 486 41 866 69 975 78 979 82 6 5 29 344 30 431 1 53 -2 62 -16 61 -10 -1 -391 -80 -848 -175z" transform="matrix(.1 0 0 -.1 0 512)"/><path d="M2252 3356 c-160 -260 -295 -481 -298 -490 -6 -15 46 -16 595 -16 331 0 601 2 601 4 0 7 -582 951 -594 964 -9 10 -74 -89 -304 -462z m575 -23 c-4 -8 -278 -456 -281 -460 -1 -2 -252 405 -274 444 l-13 23 286 0 c158 0 284 -3 282 -7z" transform="matrix(.1 0 0 -.1 0 512)"/><path d="M2393 2448 c-83 -139 -156 -263 -162 -276 -11 -21 -4 -31 91 -133 81 -86 105 -119 112 -151 10 -44 8 -47 -52 -88 l-22 -15 79 -290 c43 -159 84 -310 91 -334 6 -24 15 -40 20 -35 4 5 48 155 96 333 l88 324 -37 29 c-31 25 -37 36 -37 68 0 33 10 48 105 151 65 69 104 120 102 130 -6 22 -311 538 -318 539 -4 0 -74 -114 -156 -252z" transform="matrix(.1 0 0 -.1 0 512)"/><path d="M2070 2043 l-46 -26 -39 -147 -39 -147 -186 -12 c-257 -17 -242 -12 -296 -85 -46 -61 -46 -61 -40 -125 5 -61 10 -69 93 -185 163 -226 225 -308 229 -303 3 3 -22 108 -55 234 -34 126 -61 232 -61 235 0 3 64 11 143 17 78 7 151 15 161 18 17 5 18 1 12 -48 -4 -30 -9 -69 -12 -86 -4 -18 -2 -33 3 -33 7 0 174 139 221 185 11 10 9 21 -12 63 -14 28 -26 57 -26 63 0 7 25 81 56 166 l57 155 -49 43 c-27 24 -53 44 -59 44 -5 0 -30 -11 -55 -26z" transform="matrix(.1 0 0 -.1 0 512)"/><path d="M2913 2025 l-51 -45 59 -160 59 -160 -26 -51 c-14 -28 -23 -57 -21 -64 8 -19 217 -198 224 -191 4 3 2 41 -4 83 -5 43 -10 79 -9 79 1 1 73 -5 162 -14 l161 -15 -47 -181 c-26 -100 -54 -207 -63 -238 -8 -32 -12 -58 -8 -58 4 0 77 96 162 213 l154 212 5 65 c6 65 6 65 -39 127 -29 39 -55 64 -71 67 -14 3 -112 10 -217 17 l-193 12 -14 51 c-8 28 -20 71 -26 96 -37 144 -39 148 -87 174 -25 15 -48 26 -52 26 -3 0 -29 -20 -58 -45z" transform="matrix(.1 0 0 -.1 0 512)"/></svg>